# MagicaVoxel @ Ephtracy

# group
o 

# material
mtllib deer-1.mtl
usemtl palette

# normals
vn 0 0 1
vn 0 0 -1
vn -1 0 0
vn 1 0 0
vn 0 1 0
vn 0 -1 0

# texcoords
vt 0.0644531 0.5
vt 0.0722656 0.5

# verts
v -1.4 3.7 -1.4
v -0.7 3.7 -1.4
v -1.4 3.6 -1.4
v -0.7 3.6 -1.4
v -1.4 4 -1.5
v -0.7 4 -1.5
v -1.4 3.7 -1.5
v -0.7 3.7 -1.5
v -1.4 4.2 -1.6
v -0.7 4.2 -1.6
v -1.4 4 -1.6
v -0.7 4 -1.6
v -1.4 3.6 -1.6
v -0.7 3.6 -1.6
v -1.4 3.5 -1.6
v -0.7 3.5 -1.6
v -1.4 4.4 -1.7
v -0.7 4.4 -1.7
v -1.4 4.2 -1.7
v -0.7 4.2 -1.7
v -1.4 4.6 -1.8
v -0.7 4.6 -1.8
v -1.4 4.4 -1.8
v -0.7 4.4 -1.8
v -1.4 3.5 -1.8
v -0.7 3.5 -1.8
v -1.4 3.4 -1.8
v -0.7 3.4 -1.8
v -1.4 4.8 -1.9
v -0.7 4.8 -1.9
v -1.4 4.7 -1.9
v -1.2 4.7 -1.9
v -0.9 4.7 -1.9
v -0.7 4.7 -1.9
v -1.4 4.6 -1.9
v -1.2 4.6 -1.9
v -0.9 4.6 -1.9
v -0.7 4.6 -1.9
v -1.4 5 -2
v -0.7 5 -2
v -1.4 4.8 -2
v -0.7 4.8 -2
v -1.4 3.6 -2.1
v -0.7 3.6 -2.1
v -1.4 3.4 -2.1
v -0.7 3.4 -2.1
v -1.4 3.8 -2.2
v -0.7 3.8 -2.2
v -1.4 3.6 -2.2
v -0.7 3.6 -2.2
v -1.4 5 -2.3
v -1.3 5 -2.3
v -0.8 5 -2.3
v -0.7 5 -2.3
v -1.4 4.9 -2.3
v -1.3 4.9 -2.3
v -0.8 4.9 -2.3
v -0.7 4.9 -2.3
v -1.4 4 -2.3
v -0.7 4 -2.3
v -1.4 3.8 -2.3
v -0.7 3.8 -2.3
v -1.4 4.2 -2.4
v -0.7 4.2 -2.4
v -1.4 4 -2.4
v -0.7 4 -2.4
v -1.4 4.9 -2.5
v -1.3 4.9 -2.5
v -0.8 4.9 -2.5
v -0.7 4.9 -2.5
v -1.4 4.8 -2.5
v -1.3 4.8 -2.5
v -0.8 4.8 -2.5
v -0.7 4.8 -2.5
v -1.4 4.4 -2.5
v -1.2 4.4 -2.5
v -1.1 4.4 -2.5
v -1 4.4 -2.5
v -0.9 4.4 -2.5
v -0.7 4.4 -2.5
v -1.2 4.3 -2.5
v -1.1 4.3 -2.5
v -1 4.3 -2.5
v -0.9 4.3 -2.5
v -1.4 4.2 -2.5
v -0.7 4.2 -2.5
v -1.4 4.7 -2.6
v -0.7 4.7 -2.6
v -1.2 4.5 -2.6
v -1.1 4.5 -2.6
v -1 4.5 -2.6
v -0.9 4.5 -2.6
v -1.4 4.4 -2.6
v -1.2 4.4 -2.6
v -1.1 4.4 -2.6
v -1 4.4 -2.6
v -0.9 4.4 -2.6
v -0.7 4.4 -2.6
v -1.4 4.8 -2.7
v -0.7 4.8 -2.7
v -1.4 4.7 -2.7
v -0.7 4.7 -2.7
v -1.4 3.7 -1.4
v -1.4 3.6 -1.4
v -1.4 4 -1.5
v -1.4 3.7 -1.5
v -1.4 4.2 -1.6
v -1.4 4 -1.6
v -1.4 3.6 -1.6
v -1.4 3.5 -1.6
v -1.4 4.4 -1.7
v -1.4 4.2 -1.7
v -1.4 4.6 -1.8
v -1.4 4.4 -1.8
v -1.4 3.5 -1.8
v -1.4 3.4 -1.8
v -1.4 4.8 -1.9
v -1.4 4.7 -1.9
v -1.4 4.6 -1.9
v -1.4 5 -2
v -1.4 4.8 -2
v -1.4 4.7 -2
v -1.4 3.6 -2.1
v -1.4 3.4 -2.1
v -1.4 4.7 -2.2
v -1.4 4.5 -2.2
v -1.4 3.8 -2.2
v -1.4 3.6 -2.2
v -1.4 5 -2.3
v -1.4 4.9 -2.3
v -1.4 4.8 -2.3
v -1.4 4.7 -2.3
v -1.4 4 -2.3
v -1.4 3.8 -2.3
v -1.4 4.6 -2.4
v -1.4 4.5 -2.4
v -1.4 4.2 -2.4
v -1.4 4 -2.4
v -1.4 4.9 -2.5
v -1.4 4.8 -2.5
v -1.4 4.6 -2.5
v -1.4 4.4 -2.5
v -1.4 4.2 -2.5
v -1.4 4.7 -2.6
v -1.4 4.4 -2.6
v -1.4 4.8 -2.7
v -1.4 4.7 -2.7
v -0.7 3.7 -1.4
v -0.7 3.6 -1.4
v -0.7 4 -1.5
v -0.7 3.7 -1.5
v -0.7 4.2 -1.6
v -0.7 4 -1.6
v -0.7 3.6 -1.6
v -0.7 3.5 -1.6
v -0.7 4.4 -1.7
v -0.7 4.2 -1.7
v -0.7 4.6 -1.8
v -0.7 4.4 -1.8
v -0.7 3.5 -1.8
v -0.7 3.4 -1.8
v -0.7 4.8 -1.9
v -0.7 4.7 -1.9
v -0.7 4.6 -1.9
v -0.7 5 -2
v -0.7 4.8 -2
v -0.7 4.7 -2
v -0.7 4.6 -2
v -0.7 4.7 -2.1
v -0.7 4.6 -2.1
v -0.7 3.6 -2.1
v -0.7 3.4 -2.1
v -0.7 4.7 -2.2
v -0.7 4.4 -2.2
v -0.7 3.8 -2.2
v -0.7 3.6 -2.2
v -0.7 5 -2.3
v -0.7 4.9 -2.3
v -0.7 4.5 -2.3
v -0.7 4.4 -2.3
v -0.7 4 -2.3
v -0.7 3.8 -2.3
v -0.7 4.2 -2.4
v -0.7 4 -2.4
v -0.7 4.9 -2.5
v -0.7 4.8 -2.5
v -0.7 4.5 -2.5
v -0.7 4.4 -2.5
v -0.7 4.2 -2.5
v -0.7 4.7 -2.6
v -0.7 4.4 -2.6
v -0.7 4.8 -2.7
v -0.7 4.7 -2.7
v -1.4 5 -2
v -1.4 5 -2.3
v -1.3 5 -2.1
v -1.3 5 -2.3
v -0.8 5 -2.1
v -0.8 5 -2.3
v -0.7 5 -2
v -0.7 5 -2.3
v -1.4 4.9 -2.3
v -1.4 4.9 -2.5
v -1.3 4.9 -2.3
v -1.3 4.9 -2.5
v -0.8 4.9 -2.3
v -0.8 4.9 -2.5
v -0.7 4.9 -2.3
v -0.7 4.9 -2.5
v -1.4 4.8 -1.9
v -1.4 4.8 -2
v -1.4 4.8 -2.5
v -1.4 4.8 -2.7
v -1.3 4.8 -2.5
v -1.3 4.8 -2.6
v -0.8 4.8 -2.5
v -0.8 4.8 -2.6
v -0.7 4.8 -1.9
v -0.7 4.8 -2
v -0.7 4.8 -2.5
v -0.7 4.8 -2.7
v -1.4 4.6 -1.8
v -1.4 4.6 -1.9
v -1.2 4.6 -1.9
v -0.9 4.6 -1.9
v -0.7 4.6 -1.8
v -0.7 4.6 -1.9
v -1.4 4.4 -1.7
v -1.4 4.4 -1.8
v -0.7 4.4 -1.7
v -0.7 4.4 -1.8
v -1.4 4.2 -1.6
v -1.4 4.2 -1.7
v -0.7 4.2 -1.6
v -0.7 4.2 -1.7
v -1.4 4 -1.5
v -1.4 4 -1.6
v -0.7 4 -1.5
v -0.7 4 -1.6
v -1.4 3.7 -1.4
v -1.4 3.7 -1.5
v -0.7 3.7 -1.4
v -0.7 3.7 -1.5
v -1.4 4.7 -2.6
v -1.4 4.7 -2.7
v -0.7 4.7 -2.6
v -0.7 4.7 -2.7
v -1.4 4.4 -2.5
v -1.4 4.4 -2.6
v -1.2 4.4 -2.5
v -1.2 4.4 -2.6
v -1.1 4.4 -2.5
v -1.1 4.4 -2.6
v -1 4.4 -2.5
v -1 4.4 -2.6
v -0.9 4.4 -2.5
v -0.9 4.4 -2.6
v -0.7 4.4 -2.5
v -0.7 4.4 -2.6
v -1.4 4.2 -2.4
v -1.4 4.2 -2.5
v -0.7 4.2 -2.4
v -0.7 4.2 -2.5
v -1.4 4 -2.3
v -1.4 4 -2.4
v -0.7 4 -2.3
v -0.7 4 -2.4
v -1.4 3.8 -2.2
v -1.4 3.8 -2.3
v -0.7 3.8 -2.2
v -0.7 3.8 -2.3
v -1.4 3.6 -1.4
v -1.4 3.6 -1.6
v -1.4 3.6 -2.1
v -1.4 3.6 -2.2
v -0.7 3.6 -1.4
v -0.7 3.6 -1.6
v -0.7 3.6 -2.1
v -0.7 3.6 -2.2
v -1.4 3.5 -1.6
v -1.4 3.5 -1.8
v -0.7 3.5 -1.6
v -0.7 3.5 -1.8
v -1.4 3.4 -1.8
v -1.4 3.4 -2.1
v -0.7 3.4 -1.8
v -0.7 3.4 -2.1

# faces
f 3/1/1 2/1/1 1/1/1
f 4/1/1 2/1/1 3/1/1
f 7/1/1 6/1/1 5/1/1
f 8/1/1 6/1/1 7/1/1
f 11/1/1 10/1/1 9/1/1
f 12/1/1 10/1/1 11/1/1
f 15/1/1 14/1/1 13/1/1
f 16/1/1 14/1/1 15/1/1
f 19/1/1 18/1/1 17/1/1
f 20/1/1 18/1/1 19/1/1
f 23/1/1 22/1/1 21/1/1
f 24/1/1 22/1/1 23/1/1
f 27/1/1 26/1/1 25/1/1
f 28/1/1 26/1/1 27/1/1
f 31/2/1 30/2/1 29/2/1
f 32/2/1 30/2/1 31/2/1
f 33/2/1 30/2/1 32/2/1
f 34/2/1 30/2/1 33/2/1
f 35/1/1 32/1/1 31/1/1
f 36/2/1 33/2/1 32/2/1
f 36/1/1 32/1/1 35/1/1
f 37/1/1 34/1/1 33/1/1
f 37/2/1 33/2/1 36/2/1
f 38/1/1 34/1/1 37/1/1
f 41/2/1 40/2/1 39/2/1
f 42/2/1 40/2/1 41/2/1
f 43/1/2 44/1/2 45/1/2
f 45/1/2 44/1/2 46/1/2
f 47/1/2 48/1/2 49/1/2
f 49/1/2 48/1/2 50/1/2
f 51/2/2 52/2/2 55/2/2
f 52/1/2 53/1/2 56/1/2
f 55/2/2 52/2/2 56/2/2
f 53/2/2 54/2/2 57/2/2
f 56/1/2 53/1/2 57/1/2
f 57/2/2 54/2/2 58/2/2
f 59/1/2 60/1/2 61/1/2
f 61/1/2 60/1/2 62/1/2
f 63/1/2 64/1/2 65/1/2
f 65/1/2 64/1/2 66/1/2
f 67/2/2 68/2/2 71/2/2
f 68/1/2 69/1/2 72/1/2
f 71/2/2 68/2/2 72/2/2
f 69/2/2 70/2/2 73/2/2
f 72/1/2 69/1/2 73/1/2
f 73/2/2 70/2/2 74/2/2
f 75/1/2 76/1/2 81/1/2
f 76/2/2 77/2/2 81/2/2
f 77/1/2 78/1/2 82/1/2
f 81/2/2 77/2/2 82/2/2
f 78/2/2 79/2/2 83/2/2
f 82/1/2 78/1/2 83/1/2
f 79/1/2 80/1/2 84/1/2
f 83/2/2 79/2/2 84/2/2
f 82/1/2 83/1/2 85/1/2
f 81/1/2 82/1/2 85/1/2
f 83/1/2 84/1/2 85/1/2
f 75/1/2 81/1/2 85/1/2
f 84/1/2 80/1/2 86/1/2
f 85/1/2 84/1/2 86/1/2
f 87/2/2 88/2/2 89/2/2
f 89/2/2 88/2/2 90/2/2
f 90/2/2 88/2/2 91/2/2
f 91/2/2 88/2/2 92/2/2
f 87/2/2 89/2/2 93/2/2
f 89/1/2 90/1/2 94/1/2
f 93/2/2 89/2/2 94/2/2
f 90/2/2 91/2/2 95/2/2
f 94/1/2 90/1/2 95/1/2
f 91/1/2 92/1/2 96/1/2
f 95/2/2 91/2/2 96/2/2
f 92/2/2 88/2/2 97/2/2
f 96/1/2 92/1/2 97/1/2
f 97/2/2 88/2/2 98/2/2
f 99/2/2 100/2/2 101/2/2
f 101/2/2 100/2/2 102/2/2
f 106/1/3 104/1/3 103/1/3
f 108/1/3 106/1/3 105/1/3
f 109/1/3 104/1/3 106/1/3
f 109/1/3 106/1/3 108/1/3
f 112/1/3 108/1/3 107/1/3
f 112/1/3 110/1/3 109/1/3
f 112/1/3 109/1/3 108/1/3
f 114/1/3 112/1/3 111/1/3
f 115/1/3 110/1/3 112/1/3
f 115/1/3 112/1/3 114/1/3
f 119/1/3 114/1/3 113/1/3
f 119/1/3 115/1/3 114/1/3
f 119/1/3 116/1/3 115/1/3
f 121/2/3 118/2/3 117/2/3
f 122/1/3 119/1/3 118/1/3
f 122/2/3 118/2/3 121/2/3
f 123/1/3 116/1/3 119/1/3
f 123/1/3 119/1/3 122/1/3
f 123/1/3 122/1/3 121/1/3
f 124/1/3 116/1/3 123/1/3
f 125/1/3 123/1/3 121/1/3
f 126/1/3 123/1/3 125/1/3
f 127/1/3 123/1/3 126/1/3
f 128/1/3 123/1/3 127/1/3
f 129/2/3 121/2/3 120/2/3
f 130/2/3 121/2/3 129/2/3
f 131/1/3 125/1/3 121/1/3
f 131/2/3 121/2/3 130/2/3
f 132/2/3 126/2/3 125/2/3
f 132/1/3 125/1/3 131/1/3
f 133/1/3 127/1/3 126/1/3
f 134/1/3 127/1/3 133/1/3
f 135/2/3 131/2/3 130/2/3
f 135/2/3 126/2/3 132/2/3
f 135/2/3 132/2/3 131/2/3
f 136/1/3 133/1/3 126/1/3
f 136/2/3 126/2/3 135/2/3
f 137/1/3 133/1/3 136/1/3
f 138/1/3 133/1/3 137/1/3
f 139/2/3 135/2/3 130/2/3
f 140/2/3 135/2/3 139/2/3
f 141/1/3 136/1/3 135/1/3
f 141/2/3 135/2/3 140/2/3
f 141/1/3 137/1/3 136/1/3
f 142/1/3 137/1/3 141/1/3
f 143/1/3 137/1/3 142/1/3
f 144/2/3 141/2/3 140/2/3
f 144/2/3 142/2/3 141/2/3
f 145/2/3 142/2/3 144/2/3
f 146/2/3 144/2/3 140/2/3
f 147/2/3 144/2/3 146/2/3
f 148/1/4 149/1/4 151/1/4
f 150/1/4 151/1/4 153/1/4
f 151/1/4 149/1/4 154/1/4
f 153/1/4 151/1/4 154/1/4
f 152/1/4 153/1/4 157/1/4
f 154/1/4 155/1/4 157/1/4
f 153/1/4 154/1/4 157/1/4
f 156/1/4 157/1/4 159/1/4
f 157/1/4 155/1/4 160/1/4
f 159/1/4 157/1/4 160/1/4
f 158/1/4 159/1/4 164/1/4
f 159/1/4 160/1/4 164/1/4
f 160/1/4 161/1/4 164/1/4
f 162/2/4 163/2/4 166/2/4
f 163/1/4 164/1/4 167/1/4
f 166/2/4 163/2/4 167/2/4
f 164/1/4 161/1/4 168/1/4
f 167/1/4 164/1/4 168/1/4
f 165/2/4 166/2/4 169/2/4
f 166/2/4 167/2/4 169/2/4
f 167/2/4 168/2/4 169/2/4
f 168/1/4 161/1/4 170/1/4
f 169/2/4 168/2/4 170/2/4
f 170/1/4 161/1/4 171/1/4
f 171/1/4 161/1/4 172/1/4
f 165/2/4 169/2/4 173/2/4
f 169/1/4 170/1/4 173/1/4
f 170/1/4 171/1/4 173/1/4
f 173/1/4 171/1/4 174/1/4
f 174/1/4 171/1/4 175/1/4
f 175/1/4 171/1/4 176/1/4
f 165/2/4 173/2/4 177/2/4
f 173/2/4 174/2/4 177/2/4
f 177/2/4 174/2/4 178/2/4
f 178/2/4 174/2/4 179/2/4
f 174/1/4 175/1/4 180/1/4
f 179/2/4 174/2/4 180/2/4
f 180/1/4 175/1/4 181/1/4
f 181/1/4 175/1/4 182/1/4
f 179/1/4 180/1/4 183/1/4
f 180/1/4 181/1/4 183/1/4
f 183/1/4 181/1/4 184/1/4
f 178/2/4 179/2/4 185/2/4
f 185/2/4 179/2/4 186/2/4
f 179/1/4 183/1/4 187/1/4
f 186/2/4 179/2/4 187/2/4
f 187/1/4 183/1/4 188/1/4
f 188/1/4 183/1/4 189/1/4
f 186/2/4 187/2/4 190/2/4
f 187/2/4 188/2/4 190/2/4
f 190/2/4 188/2/4 191/2/4
f 186/2/4 190/2/4 192/2/4
f 192/2/4 190/2/4 193/2/4
f 196/2/5 195/2/5 194/2/5
f 197/2/5 195/2/5 196/2/5
f 198/2/5 196/2/5 194/2/5
f 198/1/5 197/1/5 196/1/5
f 199/1/5 197/1/5 198/1/5
f 200/2/5 198/2/5 194/2/5
f 200/2/5 199/2/5 198/2/5
f 201/2/5 199/2/5 200/2/5
f 204/2/5 203/2/5 202/2/5
f 205/2/5 203/2/5 204/2/5
f 206/1/5 205/1/5 204/1/5
f 207/1/5 205/1/5 206/1/5
f 208/2/5 207/2/5 206/2/5
f 209/2/5 207/2/5 208/2/5
f 214/2/5 213/2/5 212/2/5
f 215/2/5 213/2/5 214/2/5
f 216/1/5 215/1/5 214/1/5
f 217/2/5 213/2/5 215/2/5
f 217/1/5 215/1/5 216/1/5
f 218/2/5 211/2/5 210/2/5
f 219/2/5 211/2/5 218/2/5
f 220/2/5 217/2/5 216/2/5
f 221/2/5 213/2/5 217/2/5
f 221/2/5 217/2/5 220/2/5
f 224/1/5 223/1/5 222/1/5
f 225/1/5 224/1/5 222/1/5
f 226/1/5 225/1/5 222/1/5
f 227/1/5 225/1/5 226/1/5
f 230/1/5 229/1/5 228/1/5
f 231/1/5 229/1/5 230/1/5
f 234/1/5 233/1/5 232/1/5
f 235/1/5 233/1/5 234/1/5
f 238/1/5 237/1/5 236/1/5
f 239/1/5 237/1/5 238/1/5
f 242/1/5 241/1/5 240/1/5
f 243/1/5 241/1/5 242/1/5
f 244/2/6 245/2/6 246/2/6
f 246/2/6 245/2/6 247/2/6
f 248/2/6 249/2/6 250/2/6
f 250/2/6 249/2/6 251/2/6
f 250/1/6 251/1/6 252/1/6
f 252/1/6 251/1/6 253/1/6
f 252/2/6 253/2/6 254/2/6
f 254/2/6 253/2/6 255/2/6
f 254/1/6 255/1/6 256/1/6
f 256/1/6 255/1/6 257/1/6
f 256/2/6 257/2/6 258/2/6
f 258/2/6 257/2/6 259/2/6
f 260/1/6 261/1/6 262/1/6
f 262/1/6 261/1/6 263/1/6
f 264/1/6 265/1/6 266/1/6
f 266/1/6 265/1/6 267/1/6
f 268/1/6 269/1/6 270/1/6
f 270/1/6 269/1/6 271/1/6
f 272/1/6 273/1/6 276/1/6
f 276/1/6 273/1/6 277/1/6
f 274/1/6 275/1/6 278/1/6
f 278/1/6 275/1/6 279/1/6
f 280/1/6 281/1/6 282/1/6
f 282/1/6 281/1/6 283/1/6
f 284/1/6 285/1/6 286/1/6
f 286/1/6 285/1/6 287/1/6
